<?xml version="1.0" encoding="UTF-8"?>
<svg id="Layer_1" data-name="Layer 1" xmlns="http://www.w3.org/2000/svg" viewBox="0 0 121.6 24.53">
  <defs>
    <style>
      .cls-1 {
        fill: #fff;
        stroke-width: 0px;
      }
    </style>
  </defs>
  <path class="cls-1" d="M4.91,0v19.61h9.8v4.91H0V0h4.91Z"/>
  <path class="cls-1" d="M31.64,0v4.9h-9.8v4.91h7.35v4.9h-7.35v4.9h9.8v4.91h-14.71V0h14.71Z"/>
  <path class="cls-1" d="M44.12,24.53l-.52-1.16L33.1,0h5.19l5.81,12.92L49.92,0h5.25l-11.05,24.53Z"/>
  <path class="cls-1" d="M71.28,0v4.9h-9.8v4.91h7.35v4.9h-7.35v4.9h9.8v4.91h-14.71V0h14.71Z"/>
  <path class="cls-1" d="M78.41,0v19.61h9.8v4.91h-14.71V0h4.91Z"/>
  <path class="cls-1" d="M95.95,4.9v4.91h-4.91v-4.91h4.91ZM95.95,19.61v4.91h-4.91v-4.91h4.91Z"/>
  <path class="cls-1" d="M113.23,17.52c-.95.62-1.43,1.32-1.43,2.09h9.8v4.91h-14.71v-4.91l.72-2.21c.48-1.48,1.88-2.92,4.19-4.31.85-.52,1.88-1.33,3.09-2.44,1.21-1.1,1.81-2.2,1.81-3.3,0-.67-.24-1.25-.72-1.73s-1.06-.72-1.73-.72-1.26.24-1.73.72-.71,1.06-.71,1.73h-4.91c0-2.02.72-3.75,2.16-5.19s3.17-2.16,5.2-2.16,3.75.72,5.19,2.16,2.16,3.17,2.16,5.19c0,1.7-.56,3.29-1.7,4.76-1.13,1.47-2.49,2.71-4.07,3.73-.78.5-1.65,1.06-2.6,1.68Z"/>
</svg>