<?xml version="1.0" encoding="UTF-8"?>
<svg id="Layer_1" data-name="Layer 1" xmlns="http://www.w3.org/2000/svg" viewBox="0 0 122.74 24.53">
  <defs>
    <style>
      .cls-1 {
        fill: #fff;
        stroke-width: 0px;
      }
    </style>
  </defs>
  <path class="cls-1" d="M4.91,0v19.61h9.8v4.91H0V0h4.91Z"/>
  <path class="cls-1" d="M31.64,0v4.9h-9.8v4.91h7.35v4.9h-7.35v4.9h9.8v4.91h-14.71V0h14.71Z"/>
  <path class="cls-1" d="M44.12,24.53l-.52-1.16L33.1,0h5.19l5.81,12.92L49.92,0h5.25l-11.05,24.53Z"/>
  <path class="cls-1" d="M71.28,0v4.9h-9.8v4.91h7.35v4.9h-7.35v4.9h9.8v4.91h-14.71V0h14.71Z"/>
  <path class="cls-1" d="M78.41,0v19.61h9.8v4.91h-14.71V0h4.91Z"/>
  <path class="cls-1" d="M95.95,4.9v4.91h-4.91v-4.91h4.91ZM95.95,19.61v4.91h-4.91v-4.91h4.91Z"/>
  <path class="cls-1" d="M114.02,12.78c-.25-.16-.55-.34-.88-.52.35-.2.66-.39.9-.56.25-.17.61-.39,1.07-.67.64-.4,1.25-.88,1.84-1.45.59-.57.88-1.11.88-1.63,0-.83-.3-1.55-.91-2.15-.6-.6-1.32-.91-2.17-.91-.74,0-1.39.24-1.95.71-.56.47-.91,1.05-1.05,1.74l-4.88-.58c.28-1.9,1.17-3.51,2.66-4.81,1.49-1.3,3.23-1.96,5.22-1.96,2.19,0,4.07.78,5.63,2.34s2.34,3.43,2.34,5.61c0,.79-.13,1.54-.4,2.25-.27.71-.88,1.39-1.82,2.05.97.48,1.59,1.11,1.84,1.91s.38,1.59.38,2.38c0,2.19-.78,4.07-2.34,5.63-1.56,1.56-3.44,2.34-5.63,2.34-1.99,0-3.73-.65-5.22-1.96-1.49-1.3-2.38-2.91-2.66-4.83l4.88-.58c.14.7.49,1.28,1.05,1.75s1.21.7,1.95.7c.84,0,1.56-.3,2.17-.89.6-.59.91-1.32.91-2.17,0-.77-.25-1.36-.76-1.76-.51-.41-1.14-.84-1.9-1.31-.52-.3-.9-.54-1.15-.7Z"/>
</svg>