<?xml version="1.0" encoding="UTF-8"?>
<svg id="Layer_1" data-name="Layer 1" xmlns="http://www.w3.org/2000/svg" viewBox="0 0 114.25 24.53">
  <defs>
    <style>
      .cls-1 {
        fill: #fff;
        stroke-width: 0px;
      }
    </style>
  </defs>
  <path class="cls-1" d="M4.91,0v19.61h9.8v4.91H0V0h4.91Z"/>
  <path class="cls-1" d="M31.64,0v4.9h-9.8v4.91h7.35v4.9h-7.35v4.9h9.8v4.91h-14.71V0h14.71Z"/>
  <path class="cls-1" d="M44.12,24.53l-.52-1.16L33.1,0h5.19l5.81,12.92L49.92,0h5.25l-11.05,24.53Z"/>
  <path class="cls-1" d="M71.28,0v4.9h-9.8v4.91h7.35v4.9h-7.35v4.9h9.8v4.91h-14.71V0h14.71Z"/>
  <path class="cls-1" d="M78.41,0v19.61h9.8v4.91h-14.71V0h4.91Z"/>
  <path class="cls-1" d="M95.95,4.9v4.91h-4.91v-4.91h4.91ZM95.95,19.61v4.91h-4.91v-4.91h4.91Z"/>
  <path class="cls-1" d="M114.25,0v24.53h-4.91V6.5l-2.45.71V2.1l7.36-2.1Z"/>
</svg>