<?xml version="1.0" encoding="UTF-8"?>
<svg id="Layer_1" data-name="Layer 1" xmlns="http://www.w3.org/2000/svg" xmlns:xlink="http://www.w3.org/1999/xlink" viewBox="0 0 740.57 382.54">
  <defs>
    <style>
      .cls-1 {
        fill: #fff;
        filter: url(#drop-shadow-1);
        stroke: #c10230;
        stroke-miterlimit: 10;
        stroke-width: 20.57px;
      }

      .cls-2 {
        fill: #f58621;
        stroke-width: 0px;
      }
    </style>
    <filter id="drop-shadow-1" filterUnits="userSpaceOnUse">
      <feOffset dx="0" dy="6.85"/>
      <feGaussianBlur result="blur" stdDeviation="4.89"/>
      <feFlood flood-color="#010101" flood-opacity=".2"/>
      <feComposite in2="blur" operator="in"/>
      <feComposite in="SourceGraphic"/>
    </filter>
  </defs>
  <path class="cls-1" d="M670.8,10.28H69.76c-32.85,0-59.48,26.63-59.48,59.48v243.01c0,32.85,26.63,59.48,59.48,59.48h601.04c32.85,0,59.48-26.63,59.48-59.48V69.76c0-32.85-26.63-59.48-59.48-59.48h0Z"/>
  <g>
    <path class="cls-2" d="M330.41,156c-2.12,0-4.23-.94-5.64-2.74l-24.61-31.23c-1.19-1.5-1.72-3.42-1.49-5.32.23-1.9,1.21-3.63,2.73-4.8l32.85-25.35,8.64,11.35-26.98,20.91,20.13,25.54c2.46,3.11,1.92,7.63-1.19,10.09-1.32,1.04-2.88,1.54-4.44,1.54Z"/>
    <path class="cls-2" d="M386.27,156c2.12,0,4.23-.94,5.64-2.74l24.61-31.23c1.19-1.5,1.72-3.42,1.49-5.32-.23-1.9-1.21-3.63-2.73-4.8l-32.73-25.35-8.77,11.35,26.98,20.91-20.13,25.54c-2.46,3.11-1.92,7.63,1.19,10.09,1.32,1.04,2.88,1.54,4.44,1.54Z"/>
    <g>
      <circle class="cls-2" cx="358.47" cy="63.42" r="22.04"/>
      <polygon class="cls-2" points="334.41 167.39 382.53 167.39 382.56 86.57 334.25 86.57 334.41 167.39"/>
    </g>
    <path class="cls-2" d="M371.49,268.45c6.1,0,11.05-4.95,11.05-11.05v-96.25s-22.1,0-22.1,0v96.25c0,6.1,4.95,11.05,11.05,11.05Z"/>
    <path class="cls-2" d="M345.45,268.45c6.1,0,11.05-4.95,11.05-11.05v-96.25s-22.1,0-22.1,0v96.25c0,6.1,4.95,11.05,11.05,11.05Z"/>
  </g>
</svg>