<?xml version="1.0" encoding="UTF-8"?>
<svg id="Layer_1" data-name="Layer 1" xmlns="http://www.w3.org/2000/svg" viewBox="0 0 19.76 32.94">
  <defs>
    <style>
      .cls-1 {
        fill: #fff;
        stroke-width: 0px;
      }
    </style>
  </defs>
  <path class="cls-1" d="M8.52,23.53c-1.28.84-1.92,1.77-1.92,2.81h13.16v6.6H0v-6.6l.97-2.97c.65-1.98,2.52-3.91,5.63-5.79,1.14-.69,2.53-1.78,4.15-3.27,1.62-1.49,2.43-2.96,2.43-4.43,0-.9-.32-1.67-.97-2.32s-1.42-.97-2.32-.97-1.69.32-2.33.97c-.64.65-.96,1.42-.96,2.32H0c0-2.71.97-5.04,2.9-6.97C4.84.97,7.17,0,9.89,0s5.04.97,6.97,2.9,2.9,4.26,2.9,6.97c0,2.29-.76,4.42-2.28,6.4-1.52,1.98-3.34,3.64-5.47,5.01-1.05.67-2.21,1.42-3.49,2.26Z"/>
</svg>