<?xml version="1.0" encoding="UTF-8"?>
<svg id="Layer_1" data-name="Layer 1" xmlns="http://www.w3.org/2000/svg" viewBox="0 0 21.29 32.94">
  <defs>
    <style>
      .cls-1 {
        fill: #fff;
        stroke-width: 0px;
      }
    </style>
  </defs>
  <path class="cls-1" d="M9.58,17.17c-.34-.22-.74-.45-1.18-.7.48-.27.88-.52,1.22-.76.33-.23.81-.53,1.44-.9.86-.53,1.68-1.18,2.47-1.94s1.19-1.49,1.19-2.19c0-1.12-.41-2.08-1.22-2.89s-1.78-1.22-2.91-1.22c-.99,0-1.87.32-2.62.95-.75.63-1.22,1.41-1.41,2.34l-6.56-.78c.38-2.56,1.57-4.72,3.58-6.47S7.92,0,10.59,0c2.94,0,5.46,1.05,7.56,3.15s3.15,4.61,3.15,7.54c0,1.06-.18,2.07-.54,3.02-.36.95-1.17,1.87-2.44,2.76,1.31.64,2.13,1.5,2.47,2.57s.51,2.14.51,3.2c0,2.94-1.05,5.46-3.15,7.56s-4.62,3.15-7.56,3.15c-2.67,0-5.01-.87-7.01-2.63s-3.2-3.91-3.58-6.49l6.56-.78c.19.94.66,1.72,1.41,2.35.75.63,1.62.94,2.62.94,1.13,0,2.1-.4,2.91-1.2.81-.8,1.22-1.77,1.22-2.91,0-1.04-.34-1.83-1.02-2.37s-1.53-1.13-2.55-1.76c-.7-.41-1.21-.72-1.55-.94Z"/>
</svg>