<?xml version="1.0" encoding="UTF-8"?>
<svg id="Layer_1" data-name="Layer 1" xmlns="http://www.w3.org/2000/svg" viewBox="0 0 78.29 33.6">
  <defs>
    <style>
      .cls-1 {
        fill: #fff;
        stroke-width: 0px;
      }
    </style>
  </defs>
  <path class="cls-1" d="M22.86,1.65c2,.86,3.75,2.04,5.26,3.52l-4.66,4.66c-1.96-1.93-4.29-2.9-6.99-2.9s-5.05.97-6.98,2.91c-1.93,1.94-2.89,4.27-2.89,6.98s.96,5.05,2.89,6.98,4.25,2.89,6.98,2.89c2.14,0,4.05-.62,5.74-1.85,1.69-1.23,2.88-2.81,3.58-4.73h-9.32v-6.58h16.14c.22,1.04.33,2.13.33,3.29,0,4.54-1.61,8.42-4.84,11.64-3.23,3.22-7.1,4.83-11.63,4.83s-8.42-1.61-11.64-4.83C1.61,25.23,0,21.35,0,16.82S1.61,8.42,4.83,5.19C8.06,1.96,11.94.35,16.47.35c2.26,0,4.39.43,6.39,1.3Z"/>
  <path class="cls-1" d="M62.96,5.19c3.23,3.23,4.84,7.1,4.84,11.63s-1.61,8.42-4.84,11.64c-3.23,3.22-7.1,4.83-11.63,4.83s-8.42-1.61-11.64-4.83c-3.22-3.22-4.83-7.1-4.83-11.64s1.61-8.4,4.83-11.63c3.22-3.23,7.1-4.84,11.64-4.84s8.4,1.61,11.63,4.84ZM44.36,9.84c-1.93,1.94-2.89,4.27-2.89,6.98s.96,5.05,2.89,6.98,4.25,2.89,6.98,2.89,5.04-.96,6.98-2.89c1.94-1.93,2.91-4.25,2.91-6.98s-.97-5.04-2.91-6.98c-1.94-1.94-4.27-2.91-6.98-2.91s-5.05.97-6.98,2.91Z"/>
  <path class="cls-1" d="M78.29,0l-.86,24.38h-5.19l-.86-24.38h6.91ZM78.29,26.89v6.7h-6.91v-6.7h6.91Z"/>
</svg>