<?xml version="1.0" encoding="UTF-8"?>
<svg id="Layer_1" data-name="Layer 1" xmlns="http://www.w3.org/2000/svg" viewBox="0 0 120.23 71.79">
  <defs>
    <style>
      .cls-1 {
        fill: #fff;
        stroke-width: 0px;
      }
    </style>
  </defs>
  <g>
    <path class="cls-1" d="M22.86,1.3c2,.86,3.75,2.04,5.26,3.52l-4.66,4.66c-1.96-1.93-4.29-2.9-6.99-2.9s-5.05.97-6.98,2.91c-1.93,1.94-2.89,4.27-2.89,6.98s.96,5.05,2.89,6.98,4.25,2.89,6.98,2.89c2.14,0,4.05-.62,5.74-1.85,1.69-1.23,2.88-2.81,3.58-4.73h-9.32v-6.58h16.14c.22,1.04.33,2.13.33,3.29,0,4.54-1.61,8.42-4.84,11.64-3.23,3.22-7.1,4.83-11.63,4.83s-8.42-1.61-11.64-4.83C1.61,24.89,0,21.01,0,16.47S1.61,8.07,4.83,4.84C8.06,1.61,11.94,0,16.47,0c2.26,0,4.39.43,6.39,1.3Z"/>
    <path class="cls-1" d="M40.69,28.24l-2.12,4.7h-7.03L45.64,1.53l.69-1.53.72,1.55,14.12,31.39h-7.05l-2.1-4.72-.1-.23h-11.12l-.1.25ZM48.93,21.42l-2.58-5.76-2.6,5.76h5.17Z"/>
    <path class="cls-1" d="M79.97,21.42L96.03,0v32.94h-6.6v-13.18l-9.46,12.65-9.46-12.65v13.18h-6.6V0l16.06,21.42Z"/>
    <path class="cls-1" d="M120.23,0v6.58h-13.16v6.6h9.87v6.58h-9.87v6.58h13.16v6.6h-19.76V0h19.76Z"/>
  </g>
  <g>
    <path class="cls-1" d="M33.04,43.69c3.23,3.23,4.84,7.1,4.84,11.63s-1.61,8.42-4.84,11.64c-3.23,3.22-7.1,4.83-11.63,4.83s-8.42-1.61-11.64-4.83c-3.22-3.22-4.83-7.1-4.83-11.64s1.61-8.4,4.83-11.63c3.22-3.23,7.1-4.84,11.64-4.84s8.4,1.61,11.63,4.84ZM14.44,48.34c-1.93,1.94-2.89,4.27-2.89,6.98s.96,5.05,2.89,6.98,4.25,2.89,6.98,2.89,5.04-.96,6.98-2.89c1.94-1.93,2.91-4.25,2.91-6.98s-.97-5.04-2.91-6.98c-1.94-1.94-4.27-2.91-6.98-2.91s-5.05.97-6.98,2.91Z"/>
    <path class="cls-1" d="M50.96,71.79l-.69-1.55-14.1-31.39h6.97l7.81,17.35,7.81-17.35h7.05l-14.84,32.94Z"/>
    <path class="cls-1" d="M87.82,38.85v6.58h-13.16v6.6h9.87v6.58h-9.87v6.58h13.16v6.6h-19.76v-32.94h19.76Z"/>
    <path class="cls-1" d="M92.21,61.9v-23.05h11.53c3.17,0,5.89,1.13,8.15,3.39,2.26,2.26,3.39,4.97,3.39,8.13,0,2.45-.7,4.66-2.09,6.61-1.4,1.96-3.18,3.34-5.34,4.16l7.44,10.65h-8.05l-8.42-12.06v12.06h-6.6v-9.89ZM103.74,55.32c1.36,0,2.53-.48,3.49-1.45.97-.97,1.45-2.13,1.45-3.49s-.48-2.51-1.45-3.48c-.97-.98-2.13-1.46-3.49-1.46h-4.92v9.89h4.92Z"/>
  </g>
</svg>