<?xml version="1.0" encoding="UTF-8"?>
<svg id="Layer_1" data-name="Layer 1" xmlns="http://www.w3.org/2000/svg" viewBox="0 0 224.76 32.94">
  <defs>
    <style>
      .cls-1 {
        fill: #fff;
        stroke-width: 0px;
      }
    </style>
  </defs>
  <path class="cls-1" d="M22.86,1.3c2,.86,3.75,2.04,5.26,3.52l-4.66,4.66c-1.96-1.93-4.29-2.9-6.99-2.9s-5.05.97-6.98,2.91c-1.93,1.94-2.89,4.27-2.89,6.98s.96,5.05,2.89,6.98,4.25,2.89,6.98,2.89c2.14,0,4.05-.62,5.74-1.85,1.69-1.23,2.88-2.81,3.58-4.73h-9.32v-6.58h16.14c.22,1.04.33,2.13.33,3.29,0,4.54-1.61,8.42-4.84,11.64-3.23,3.22-7.1,4.83-11.63,4.83s-8.42-1.61-11.64-4.83C1.61,24.89,0,21.01,0,16.47S1.61,8.07,4.83,4.84C8.06,1.61,11.94,0,16.47,0c2.26,0,4.39.43,6.39,1.3Z"/>
  <path class="cls-1" d="M54.63,0v6.58h-13.16v6.6h9.87v6.58h-9.87v6.58h13.16v6.6h-19.76V0h19.76Z"/>
  <path class="cls-1" d="M72.43,0h8.24v6.58h-8.24v26.36h-6.6V6.58h-8.24V0h14.84Z"/>
  <path class="cls-1" d="M94.15,23.05V0h11.53c3.17,0,5.89,1.13,8.15,3.39,2.26,2.26,3.39,4.97,3.39,8.13,0,2.45-.7,4.66-2.09,6.61-1.4,1.96-3.18,3.34-5.34,4.16l7.44,10.65h-8.05l-8.42-12.06v12.06h-6.6v-9.89ZM105.68,16.47c1.36,0,2.53-.48,3.49-1.45.97-.97,1.45-2.13,1.45-3.49s-.48-2.51-1.45-3.48c-.97-.98-2.13-1.46-3.49-1.46h-4.92v9.89h4.92Z"/>
  <path class="cls-1" d="M139.99,0v6.58h-13.16v6.6h9.87v6.58h-9.87v6.58h13.16v6.6h-19.76V0h19.76Z"/>
  <path class="cls-1" d="M151.64,28.24l-2.12,4.7h-7.03l14.1-31.41.69-1.53.72,1.55,14.12,31.39h-7.05l-2.1-4.72-.1-.23h-11.12l-.1.25ZM159.87,21.42l-2.58-5.76-2.6,5.76h5.17Z"/>
  <path class="cls-1" d="M191.65,4.84c3.23,3.23,4.84,7.1,4.84,11.63s-1.61,8.42-4.84,11.64c-3.23,3.22-7.11,4.83-11.63,4.83h-6.6V0h6.6c4.52,0,8.4,1.61,11.63,4.84ZM186.99,23.45c1.93-1.93,2.9-4.25,2.9-6.98s-.97-5.04-2.9-6.98c-1.93-1.94-4.26-2.91-6.97-2.91v19.76c2.71,0,5.03-.96,6.97-2.89Z"/>
  <path class="cls-1" d="M205.89,0l5.68,10.44,5.68-10.44h7.5l-9.89,18.17v14.77h-6.58v-14.77L198.42,0h7.48Z"/>
</svg>