<?xml version="1.0" encoding="UTF-8" standalone="no"?>
<svg
   id="Layer_1"
   data-name="Layer 1"
   version="1.1"
   viewBox="0 0 402.8 936.42999"
   width="402.79999"
   height="936.42999"
   xmlns="http://www.w3.org/2000/svg">
  <defs
     id="defs479">
    <style
       id="style477">
      .cls-1, .cls-2 {
        stroke: #00c0f3;
      }

      .cls-1, .cls-2, .cls-3, .cls-4 {
        stroke-miterlimit: 10;
        stroke-width: 2.95px;
      }

      .cls-1, .cls-5, .cls-4 {
        fill: #fff;
      }

      .cls-2 {
        fill: #00c0f3;
      }

      .cls-3 {
        fill: #bb2332;
      }

      .cls-3, .cls-4 {
        stroke: #bb2332;
      }

      .cls-5 {
        stroke-width: 0px;
      }
    </style>
  </defs>
  <g
     id="g507"
     transform="matrix(2,0,0,2,0.00999999,0)">
    <rect
       class="cls-4"
       x="1.47"
       y="122.09"
       width="198.45"
       height="136.42999"
       id="rect481" />
    <rect
       class="cls-3"
       x="1.47"
       y="61.200001"
       width="198.45"
       height="60.900002"
       id="rect483" />
    <g
       id="g505">
      <path
         class="cls-5"
         d="M 19.21,108.91 V 80.4 h -6.72 v -7.21 h 21.74 v 7.21 h -6.72 v 28.51 H 19.2 Z"
         id="path485" />
      <path
         class="cls-5"
         d="m 33.64,108.91 v -8.26 h 7.96 v 8.26 z"
         id="path487" />
      <path
         class="cls-5"
         d="M 48.22,108.91 V 95.08 L 39.37,73.19 h 8.75 l 4.23,12.69 h 0.1 l 4.48,-12.69 h 8.65 l -8.95,21.89 v 13.83 z"
         id="path489" />
      <path
         class="cls-5"
         d="m 61.26,108.91 v -8.26 h 7.96 v 8.26 z"
         id="path491" />
      <path
         class="cls-5"
         d="M 73.84,108.91 V 73.19 h 8.31 v 28.51 h 11.34 v 7.21 z"
         id="path493" />
      <path
         class="cls-5"
         d="m 99.45,108.91 v -8.26 h 7.96 v 8.26 z"
         id="path495" />
      <path
         class="cls-5"
         d="M 113,108.91 V 73.19 h 20.05 v 7.21 h -11.74 v 6.67 h 8.8 v 7.02 h -8.8 v 7.61 h 12.19 v 7.21 z"
         id="path497" />
      <path
         class="cls-5"
         d="m 139.09,108.91 v -8.26 h 7.96 v 8.26 z"
         id="path499" />
      <path
         class="cls-5"
         d="M 167.81,108.91 163.93,95.53 H 161 v 13.38 h -8.31 V 73.19 h 10.95 c 7.81,0 11.89,2.94 11.89,10.35 0,4.33 -1.69,7.06 -4.28,8.66 l 5.62,16.72 h -9.05 z m -4.73,-20.1 c 2.14,0 3.93,-0.85 3.93,-4.43 0,-4.38 -2.29,-4.23 -3.73,-4.23 h -2.29 v 8.66 z"
         id="path501" />
      <path
         class="cls-5"
         d="m 180.94,108.91 v -8.26 h 7.96 v 8.26 z"
         id="path503" />
    </g>
  </g>
  <g
     id="g525"
     transform="matrix(2,0,0,2,0.00999999,0)">
    <rect
       class="cls-1"
       x="1.47"
       y="330.31"
       width="198.45"
       height="136.42999"
       id="rect509" />
    <rect
       class="cls-2"
       x="1.47"
       y="269.42001"
       width="198.45"
       height="60.900002"
       id="rect511" />
    <g
       id="g523">
      <path
         class="cls-5"
         d="M 42.69,320.07 V 305.4 h -7.16 v 14.67 h -8.36 v -35.72 h 8.36 v 13.68 h 7.16 V 284.35 H 51 v 35.72 z"
         id="path513" />
      <path
         class="cls-5"
         d="m 72.29,284.35 h 8.26 v 23.73 c 0,8.16 -3.68,12.39 -12.09,12.39 -8.41,0 -11.69,-4.23 -11.69,-12.39 v -23.73 h 8.36 v 24.87 c 0,2.98 1.19,4.33 3.48,4.33 2.29,0 3.68,-1.34 3.68,-4.33 z"
         id="path515" />
      <path
         class="cls-5"
         d="m 109.3,320.07 v -22.19 h -0.1 l -4.78,22.19 h -5.77 l -4.88,-22.19 h -0.1 v 22.19 h -7.36 v -35.72 h 10.6 l 4.53,20.64 h 0.1 l 4.83,-20.64 h 10.3 v 35.72 h -7.36 z"
         id="path517" />
      <path
         class="cls-5"
         d="m 138.06,320.07 -1.34,-7.71 h -6.76 l -1.24,7.71 h -8.46 l 7.66,-35.72 h 10.84 l 7.86,35.72 z m -6.97,-14.78 h 4.43 l -2.19,-12.83 h -0.15 z"
         id="path519" />
      <path
         class="cls-5"
         d="m 166.71,320.07 -9.05,-19.75 h -0.1 v 19.75 h -7.36 v -35.72 h 8.66 l 7.81,17.71 h 0.1 v -17.71 h 7.46 v 35.72 h -7.51 z"
         id="path521" />
    </g>
  </g>
  <g
     id="g539"
     transform="matrix(2,0,0,2,0.00999999,0)">
    <path
       class="cls-5"
       d="M 16.42,23.87 C 15.17,23.44 13.85,22.76 12.45,21.83 11.05,20.9 9.79,19.68 8.67,18.15 7.55,16.63 6.99,14.73 6.99,12.46 6.99,9.04 8.21,6.1 10.65,3.66 13.09,1.22 16.03,0 19.47,0 c 3.44,0 6.36,1.22 8.8,3.66 2.44,2.44 3.66,5.38 3.66,8.8 h -8.31 c 0,-1.14 -0.41,-2.11 -1.23,-2.93 C 21.57,8.71 20.6,8.3 19.46,8.3 c -1.14,0 -2.13,0.41 -2.94,1.23 -0.81,0.82 -1.21,1.79 -1.21,2.93 0,1.48 0.6,2.6 1.79,3.37 1.2,0.77 2.1,1.23 2.72,1.41 0.29,0.1 1.09,0.34 2.39,0.72 1.3,0.38 2.67,1.01 4.1,1.88 1.44,0.88 2.73,2.06 3.88,3.55 1.15,1.49 1.73,3.39 1.73,5.72 0,3.44 -1.22,6.38 -3.66,8.82 -2.44,2.44 -5.38,3.66 -8.8,3.66 -3.42,0 -6.38,-1.22 -8.82,-3.66 C 8.2,35.49 6.98,32.55 6.98,29.11 h 8.33 c 0,1.15 0.4,2.13 1.21,2.94 0.81,0.81 1.79,1.21 2.94,1.21 1.15,0 2.11,-0.4 2.93,-1.21 0.82,-0.81 1.23,-1.79 1.23,-2.94 0,-1.75 -0.7,-2.89 -2.1,-3.41 -1.4,-0.52 -2.35,-0.87 -2.85,-1.06 -0.26,-0.09 -1.01,-0.34 -2.26,-0.77 z"
       id="path527" />
    <path
       class="cls-5"
       d="m 64.2,1.64 c 2.52,1.09 4.74,2.58 6.64,4.45 l -5.88,5.88 C 62.48,9.53 59.54,8.31 56.14,8.31 c -3.4,0 -6.38,1.23 -8.81,3.68 -2.43,2.45 -3.65,5.39 -3.65,8.81 0,3.42 1.22,6.38 3.65,8.81 2.43,2.43 5.37,3.65 8.81,3.65 3.44,0 6.38,-1.22 8.82,-3.66 l 5.88,5.88 c -1.91,1.89 -4.12,3.38 -6.64,4.48 -2.52,1.09 -5.21,1.64 -8.06,1.64 -5.73,0 -10.63,-2.03 -14.7,-6.1 -4.07,-4.07 -6.1,-8.97 -6.1,-14.69 0,-5.72 2.03,-10.6 6.1,-14.68 C 45.51,2.05 50.41,0 56.14,0 59,0 61.68,0.55 64.2,1.64 Z"
       id="path529" />
    <path
       class="cls-5"
       d="m 109.28,6.12 c 4.08,4.08 6.12,8.97 6.12,14.68 0,5.71 -2.04,10.63 -6.12,14.69 -4.08,4.07 -8.97,6.1 -14.68,6.1 -5.71,0 -10.63,-2.03 -14.69,-6.1 -4.07,-4.07 -6.1,-8.97 -6.1,-14.69 0,-5.72 2.03,-10.6 6.1,-14.68 C 83.98,2.04 88.88,0 94.6,0 c 5.72,0 10.6,2.04 14.68,6.12 z m -23.49,5.87 c -2.43,2.45 -3.65,5.39 -3.65,8.81 0,3.42 1.22,6.38 3.65,8.81 2.43,2.43 5.37,3.65 8.81,3.65 3.44,0 6.36,-1.22 8.81,-3.65 2.45,-2.43 3.68,-5.37 3.68,-8.81 0,-3.44 -1.23,-6.36 -3.68,-8.81 -2.45,-2.45 -5.39,-3.68 -8.81,-3.68 -3.42,0 -6.38,1.23 -8.81,3.68 z"
       id="path531" />
    <path
       class="cls-5"
       d="M 117.82,29.11 V 0 h 14.55 c 4.01,0 7.44,1.43 10.29,4.28 2.85,2.85 4.28,6.28 4.28,10.27 0,3.1 -0.88,5.88 -2.64,8.35 -1.76,2.47 -4.01,4.22 -6.75,5.25 l 9.39,13.44 H 136.77 L 126.14,26.37 v 15.22 h -8.33 V 29.1 Z m 14.55,-8.31 c 1.72,0 3.19,-0.61 4.41,-1.83 1.22,-1.22 1.83,-2.69 1.83,-4.41 0,-1.72 -0.61,-3.17 -1.83,-4.4 -1.22,-1.23 -2.69,-1.84 -4.41,-1.84 h -6.22 v 12.49 h 6.22 z"
       id="path533" />
    <path
       class="cls-5"
       d="m 175.69,0 v 8.31 h -16.62 v 8.33 h 12.46 v 8.31 h -12.46 v 8.31 h 16.62 v 8.33 H 150.74 V 0 Z"
       id="path535" />
    <path
       class="cls-5"
       d="m 188.79,8.31 v 8.33 h -8.33 V 8.31 Z m 0,24.95 v 8.33 h -8.33 v -8.33 z"
       id="path537" />
  </g>
</svg>
